<svg xmlns="http://www.w3.org/2000/svg" xmlns:xlink="http://www.w3.org/1999/xlink" preserveAspectRatio="xMidYMid" width="488.182" height="500" viewBox="0 0 40.031 41">
  <defs>
    <style>
      .cls-1 {
        fill: #000;
        fill-rule: evenodd;
      }
    </style>
  </defs>
  <path d="M34.432,28.801 C34.434,30.302 35.272,31.661 35.767,32.660 L35.764,32.660 C35.805,32.660 35.825,32.996 35.825,33.103 C35.825,33.525 35.487,34.007 35.067,34.007 C35.005,34.007 34.902,33.996 34.866,33.996 C34.857,33.996 34.853,34.001 34.855,34.004 C32.232,33.575 29.164,30.834 28.590,30.135 C28.000,30.222 26.587,30.172 26.323,30.160 C20.855,29.910 18.320,28.347 15.881,26.347 L15.980,26.347 C16.908,26.347 18.064,26.101 18.954,25.994 C21.018,27.436 24.292,28.238 26.603,28.185 C28.913,28.133 29.558,27.988 29.558,27.988 L30.324,28.898 C30.561,29.177 31.625,30.452 33.042,31.243 C33.042,31.243 32.272,28.847 32.605,27.654 L33.604,27.096 C36.468,25.632 38.020,23.260 38.020,20.588 C38.020,18.033 36.636,15.757 34.004,14.279 C34.101,13.693 34.167,13.099 34.167,12.493 C34.167,12.367 34.147,12.244 34.143,12.118 C37.861,13.907 40.020,17.028 40.020,20.588 C40.020,24.045 37.972,26.987 34.432,28.801 ZM16.011,23.993 C15.697,23.993 15.430,23.996 15.182,23.996 C14.594,23.996 14.119,23.981 13.417,23.876 C12.734,24.709 9.297,27.470 6.172,27.981 C6.173,27.978 6.167,27.978 6.156,27.978 C6.113,27.978 5.992,27.993 5.917,27.993 C5.415,27.993 5.011,27.590 5.011,27.087 C5.011,26.959 5.038,26.840 5.085,26.731 L5.083,26.731 C5.672,25.716 6.677,23.744 6.677,21.952 C6.677,21.923 6.685,21.905 6.685,21.879 C2.456,19.717 0.011,16.120 0.011,11.993 C0.011,5.367 7.173,-0.007 16.011,-0.007 C24.847,-0.007 32.011,5.367 32.011,11.993 C32.011,18.621 24.847,23.993 16.011,23.993 ZM16.011,1.993 C8.291,1.993 2.011,6.479 2.011,11.993 C2.011,15.329 4.046,18.283 7.596,20.099 L8.685,20.656 L8.685,21.879 L8.685,22.050 L8.675,22.110 C8.650,23.191 8.371,24.283 7.992,25.284 C9.854,24.393 11.540,23.007 11.871,22.608 L12.590,21.738 L13.711,21.898 C14.273,21.982 14.633,21.996 15.182,21.996 L15.537,21.995 L16.011,21.993 C23.731,21.993 30.011,17.507 30.011,11.993 C30.011,6.479 23.731,1.993 16.011,1.993 Z" transform="translate(0 3.5)" class="cls-1"/>
</svg>
