<svg xmlns="http://www.w3.org/2000/svg" xmlns:xlink="http://www.w3.org/1999/xlink" preserveAspectRatio="xMidYMid" width="494.499" height="494.484" viewBox="0 0 16.813 16.813">
  <defs>
    <style>
      .cls-1 {
        fill: #898e91;
        fill-rule: evenodd;
      }
    </style>
  </defs>
  <path d="M8.414,16.821 C3.770,16.821 0.006,13.057 0.006,8.413 C0.006,3.770 3.770,0.005 8.414,0.005 C13.057,0.005 16.821,3.770 16.821,8.413 C16.821,13.057 13.057,16.821 8.414,16.821 ZM8.414,1.284 C4.482,1.284 1.284,4.482 1.284,8.413 C1.284,12.345 4.482,15.559 8.414,15.559 C12.345,15.559 15.543,12.345 15.543,8.413 C15.543,4.482 12.345,1.284 8.414,1.284 ZM10.768,11.834 L8.104,9.169 C8.095,9.160 8.086,9.152 8.077,9.143 L8.018,9.084 C7.836,8.902 7.816,8.629 7.940,8.416 L7.940,3.464 C7.940,3.170 8.164,2.932 8.440,2.932 C8.716,2.932 8.940,3.170 8.940,3.464 L8.940,8.434 L11.554,11.048 C11.771,11.265 11.771,11.617 11.554,11.834 C11.337,12.051 10.985,12.051 10.768,11.834 Z" class="cls-1"/>
</svg>
