<svg xmlns="http://www.w3.org/2000/svg" xmlns:xlink="http://www.w3.org/1999/xlink" preserveAspectRatio="xMidYMid" width="498.124" height="500" viewBox="0 0 49.812 50">
  <defs>
    <style>
      .cls-1 {
        fill: #4fc3d4;
        fill-rule: evenodd;
      }
    </style>
  </defs>
  <path d="M49.488,26.602 C49.295,26.788 49.045,26.880 48.796,26.880 C48.533,26.880 48.270,26.777 48.074,26.572 L44.906,23.272 L44.906,46.937 C44.906,47.489 44.459,47.937 43.906,47.937 L31.906,47.937 C31.353,47.937 30.906,47.489 30.906,46.937 L30.906,30.937 L18.906,30.937 L18.906,46.937 C18.906,47.489 18.459,47.937 17.906,47.937 L5.906,47.937 C5.353,47.937 4.906,47.489 4.906,46.937 L4.906,23.271 L1.738,26.572 C1.356,26.970 0.721,26.983 0.324,26.601 C-0.075,26.218 -0.087,25.586 0.295,25.187 L24.183,0.298 C24.560,-0.096 25.250,-0.096 25.627,0.298 L49.517,25.188 C49.899,25.586 49.886,26.219 49.488,26.602 ZM24.905,2.434 L6.906,21.187 L6.906,45.937 L16.906,45.937 L16.906,29.937 C16.906,29.385 17.353,28.937 17.906,28.937 L31.906,28.937 C32.459,28.937 32.906,29.385 32.906,29.937 L32.906,45.937 L42.906,45.937 L42.906,21.188 L24.905,2.434 Z" transform="translate(0 1.03)" class="cls-1"/>
</svg>
