<?xml version="1.0" encoding="utf-8"?>
<!-- Generator: Adobe Illustrator 18.0.0, SVG Export Plug-In . SVG Version: 6.00 Build 0)  -->
<!DOCTYPE svg PUBLIC "-//W3C//DTD SVG 1.1//EN" "http://www.w3.org/Graphics/SVG/1.1/DTD/svg11.dtd">
<svg version="1.1" id="Lager_1" xmlns="http://www.w3.org/2000/svg" xmlns:xlink="http://www.w3.org/1999/xlink" x="0px" y="0px"
	 viewBox="0 0 500 500" enable-background="new 0 0 500 500" xml:space="preserve">
<path opacity="0.1" fill="#020304" d="M500,461.7c0,18.2-14.8,33-33,33H32.9c-18.2,0-33-14.8-33-33V73.1c0-18.2,14.8-33,33-33H467
	c18.2,0,33,14.8,33,33V461.7z"/>
<g>
	<path fill="#7FA156" d="M453.1,24.6H46c-13.2,0-23.9,10.7-23.9,23.9v402c0,13.2,10.7,23.9,23.9,23.9h407.2
		c13.2,0,23.9-10.7,23.9-23.9v-402C477,35.2,466.3,24.6,453.1,24.6z"/>
</g>
<g>
	<path fill="#B1D38C" d="M453.1,4H46C32.8,4,22.1,14.7,22.1,27.9v402c0,13.2,10.7,23.9,23.9,23.9h407.2c13.2,0,23.9-10.7,23.9-23.9
		v-402C477,14.7,466.3,4,453.1,4z"/>
</g>
<rect x="22.1" y="267.9" fill="#8CB75E" width="454.9" height="49.1"/>
<rect x="22.1" y="131.7" fill="#8CB75E" width="318.5" height="49.1"/>
<rect x="133.5" y="144.2" fill="#8CB75E" width="49.1" height="158.6"/>
<rect x="292.2" y="4" fill="#8CB75E" width="49.1" height="449.8"/>
<rect x="292.2" y="453.7" opacity="0.1" fill="#010202" width="49.1" height="20.6"/>
<path opacity="0.1" fill="#010202" d="M346.4,293.4c0,10.6-13.3,19.3-29.7,19.3c-16.4,0-29.7-8.6-29.7-19.3
	c0-10.6,13.3-19.3,29.7-19.3C333.1,274.2,346.4,282.8,346.4,293.4z"/>
<path fill="#E2E1E1" d="M351.5,175.7c0,19.6-15.6,35.5-34.8,35.5c-19.2,0-34.8-15.9-34.8-35.5c0-19.6,15.6-35.5,34.8-35.5
	C335.9,140.2,351.5,156.1,351.5,175.7z"/>
<path fill="#FFFFFF" d="M316.7,140.2v71c19.2,0,34.8-15.9,34.8-35.5C351.5,156.1,335.9,140.2,316.7,140.2z"/>
<g>
	<g id="map_x5F_pin_x5F_alt_17_">
		<path fill="#BC172E" d="M316.7,114.2c-34.8,0-63,28.2-63,62.9c0,34.8,63,118,63,118s62.9-83.3,62.9-118
			C379.7,142.4,351.5,114.2,316.7,114.2z M316.7,208.6c-17.4,0-31.5-14.1-31.5-31.5c0-17.4,14.1-31.5,31.5-31.5
			c17.4,0,31.5,14.1,31.5,31.5C348.2,194.5,334.1,208.6,316.7,208.6z"/>
	</g>
	<path fill="#A61830" d="M316.7,208.6c-17.4,0-31.5-14.1-31.5-31.5c0-17.4,14.1-31.5,31.5-31.5v-31.5c-34.8,0-62.9,28.2-62.9,62.9
		c0,34.7,62.9,117.9,62.9,118V208.6z"/>
</g>
</svg>
