<svg xmlns="http://www.w3.org/2000/svg" xmlns:xlink="http://www.w3.org/1999/xlink" preserveAspectRatio="xMidYMid" width="491.173" height="491.173" viewBox="0 0 22.594 22.594">
  <defs>
    <style>
      .cls-1 {
        fill: #c5cdd1;
        fill-rule: evenodd;
      }
    </style>
  </defs>
  <path d="M21.617,4.924 C21.567,4.975 21.443,5.101 21.288,5.256 L17.185,1.351 C17.436,1.099 17.598,0.937 17.632,0.904 C17.842,0.694 18.617,0.007 19.681,0.007 C20.360,0.007 20.996,0.287 21.573,0.841 C22.228,1.469 22.568,2.143 22.580,2.843 C22.593,3.551 22.269,4.251 21.617,4.924 ZM10.910,15.561 C10.847,15.623 10.770,15.669 10.686,15.693 C10.047,15.885 6.160,17.142 6.121,17.155 C6.067,17.172 6.012,17.180 5.957,17.180 C5.818,17.180 5.681,17.126 5.579,17.024 C5.437,16.883 5.385,16.672 5.444,16.480 C5.455,16.442 6.605,12.672 6.835,11.823 C6.859,11.731 6.908,11.649 6.974,11.581 C6.974,11.581 13.716,4.824 16.478,2.059 L20.580,5.963 C17.939,8.596 11.245,15.230 10.910,15.561 ZM4.606,11.583 C4.479,12.053 3.975,13.743 3.234,16.176 C2.955,17.085 3.202,18.063 3.864,18.716 C4.343,19.197 4.887,19.400 5.566,19.400 C5.820,19.400 6.072,19.362 6.355,19.274 C6.486,19.232 10.087,18.172 10.704,17.987 C11.099,17.871 11.464,17.657 11.768,17.360 C12.032,17.099 15.962,13.266 18.989,10.259 L18.970,21.053 C18.970,21.880 18.301,22.593 17.476,22.593 L1.333,22.593 C0.508,22.593 0.011,21.838 0.011,21.011 L0.011,3.997 C0.011,3.170 0.508,2.594 1.333,2.594 L13.121,2.594 C13.121,2.594 5.257,10.453 5.247,10.464 C4.938,10.780 4.716,11.170 4.606,11.583 Z" class="cls-1"/>
</svg>
