<svg xmlns="http://www.w3.org/2000/svg" xmlns:xlink="http://www.w3.org/1999/xlink" preserveAspectRatio="xMidYMid" width="500" height="499.69" viewBox="0 0 100 99.938">
  <defs>
    <style>
      .cls-1 {
        fill: #ea6060;
        fill-rule: evenodd;
      }
    </style>
  </defs>
  <path d="M42.780,97.444 C42.727,97.505 40.542,99.940 37.845,99.940 C37.837,99.940 37.613,99.940 37.605,99.940 C34.907,99.940 32.722,97.505 32.670,97.444 C19.066,81.827 0.012,58.960 0.012,37.234 C0.012,16.490 17.145,-0.010 37.723,-0.010 C58.305,-0.010 75.048,16.490 75.048,37.234 C75.048,58.960 56.388,81.827 42.780,97.444 ZM37.387,20.692 C28.125,20.692 20.587,28.141 20.587,37.294 C20.587,46.445 28.125,53.897 37.387,53.897 C46.649,53.897 54.187,46.445 54.187,37.294 C54.187,28.141 46.649,20.692 37.387,20.692 Z" transform="translate(12.47)" class="cls-1"/>
</svg>
