<?xml version="1.0" encoding="utf-8"?>
<!-- Generator: Adobe Illustrator 19.0.1, SVG Export Plug-In . SVG Version: 6.00 Build 0)  -->
<svg version="1.0" id="Layer_1" xmlns="http://www.w3.org/2000/svg" xmlns:xlink="http://www.w3.org/1999/xlink" x="0px" y="0px"
	 width="500px" height="500px" viewBox="0 0 500 500" style="enable-background:new 0 0 500 500;" xml:space="preserve">
<g id="Ellipse_3_1_">
	<g>
		<path d="M250-1C111.9-1,0,110.9,0,249s111.9,250,250,250s250-111.9,250-250S388.1-1,250-1z M397.2,425.7
			c-16.1-8-69.6-18.6-82.4-26.7c-14.7-9.3-10-60-10-60l10-8.8c0,0,2.5-22.9,6.9-31.2c9.7-18.7,20-50,20-50s10-7.3,10-20
			s-10-20-10-20s3.8-35.4,3.8-60c0-51.7-32.4-80-90.7-80S154,93.1,154,149c0,24.6,7.8,60,7.8,60s-10,7.3-10,20s10,20,10,20
			s11.7,36.3,20,50c4.9,8,6.9,31.2,6.9,31.2l10,8.8c0,0,4.7,50.7-10,60c-13.3,8.4-70.2,19.4-84,27.5C105.4,427.2,20,359.8,20,249
			C20,122,123,19,250,19s230,103,230,230C480,320,447.8,383.5,397.2,425.7z"/>
	</g>
</g>
</svg>
