<svg xmlns="http://www.w3.org/2000/svg" xmlns:xlink="http://www.w3.org/1999/xlink" preserveAspectRatio="xMidYMid" width="500" height="500" viewBox="0 0 40 40">
  <defs>
    <style>
      .cls-1 {
        fill: #51c4d4;
        fill-rule: evenodd;
      }
    </style>
  </defs>
  <path d="M19.993,40.000 C8.944,40.000 -0.014,31.043 -0.014,19.993 C-0.014,8.944 8.944,-0.014 19.993,-0.014 C31.043,-0.014 40.000,8.944 40.000,19.993 C40.000,31.043 31.043,40.000 19.993,40.000 ZM19.994,2.001 C10.072,2.001 2.001,10.065 2.001,19.978 C2.001,29.891 10.072,37.995 19.994,37.995 C29.915,37.995 37.986,29.891 37.986,19.978 C37.986,10.065 29.915,2.001 19.994,2.001 ZM18.967,21.101 L8.195,21.101 L28.200,11.868 L18.967,31.873 L18.967,21.101 Z" class="cls-1"/>
</svg>
