<svg xmlns="http://www.w3.org/2000/svg" xmlns:xlink="http://www.w3.org/1999/xlink" preserveAspectRatio="xMidYMid" width="500" height="500" viewBox="0 0 20 20">
  <defs>
    <style>
      .cls-1 {
        fill: #000;
        fill-rule: evenodd;
      }
    </style>
  </defs>
  <path d="M12.683,0.000 C13.404,0.000 13.987,0.584 13.987,1.304 L13.987,4.292 L18.874,0.190 C19.183,-0.118 19.557,0.038 19.584,0.049 C19.829,0.149 19.987,0.387 19.987,0.652 L19.987,12.392 C19.987,12.658 19.829,12.895 19.584,12.997 C19.559,13.007 19.181,13.162 18.874,12.854 L13.987,8.751 L13.985,11.740 C13.985,12.461 13.401,13.045 12.680,13.045 L1.305,13.045 C0.583,13.045 -0.000,12.461 -0.000,11.740 L0.003,1.304 C0.003,0.584 0.586,0.000 1.307,0.000 L12.683,0.000 Z" transform="translate(0 3.47)" class="cls-1"/>
</svg>
